<svg id="Layer_1" data-name="Layer 1" xmlns="http://www.w3.org/2000/svg" viewBox="0 0 48.02 80.03"><path d="M42.81,18.77c.48-7.22,1-7.73,7.24-7.77,8.44-.05,8.59.07,9.15,7.37.27.18.54.49.82.51,12.46.82,15,3.49,15,15.91q0,21.49,0,43c0,9-4.12,13.17-13,13.22q-11,.06-22,0C31.25,90.94,27,86.8,27,78.18q-.06-22.5,0-45C27,22.94,30.47,19.34,40.58,19,41.22,19,41.86,18.86,42.81,18.77Zm4.07,53.62,2.09.83,15.2-22.07H51.24c1.36-5,2.53-9.36,3.7-13.7L53,36.78,37.84,58.85h13C49.41,63.84,48.14,68.11,46.88,72.39Z" transform="translate(-26.99 -10.99)"/></svg>