<svg id="Layer_1" data-name="Layer 1" xmlns="http://www.w3.org/2000/svg" viewBox="0 0 79.95 91.27"><path d="M16.87,62.73c-.75.83-1.24,1.44-1.8,2-.76.73-1.57,1.39-2.35,2.08-.52-1.06-1.46-2.11-1.49-3.19Q11,52.37,11.08,41.14c0-3.2,15.66-19.82,18.86-20.09,2.25-.19,4.53,0,8,0-6-5.5-.55-10-.45-14.75,0-.44,1.88-1.18,2.89-1.2,7-.1,14-.22,21,.1,1.26.06,3.07,2,3.52,3.35,1.21,3.79,4.53,7.72.12,11.4.46.5.69.93.85.9,6.16-1.06,10.27,2.07,14,6.45,2.79,3.28,6.12,6.1,8.93,9.35a8.49,8.49,0,0,1,2.06,4.81c.24,6.49.22,13,0,19.47,0,2-.9,3.91-1.38,5.86l-4.25-3.58c-.21,0-.63-.05-.85.12-1.4,1.09-2.76,2.25-4.14,3.38a32.76,32.76,0,0,1-1.14-5.55c-.18-4.82.11-9.67-.21-14.48-.14-2.12-1.3-4.18-2-6.26L75,40.7c0,3.84,0,7.67,0,11.51,0,1.29-.07,3.54-.61,3.71-5.21,1.59-2.79,5.8-3.38,9-.56,3-1.3,5.9-2,8.85a2.75,2.75,0,0,0,0,1c1.17,6.93,2.34,13.85,3.64,21.5H53.15C57.1,83,55,70.27,54.91,57.31H47c0,3.59.14,7-.06,10.5a29.92,29.92,0,0,1-1.28,5,9.45,9.45,0,0,0-.59,3.28C45.59,79.77,46.39,83.36,47,87c.46,2.79.78,5.61,1.26,9.21H29.78c.45-4,.72-7.51,1.25-10.93.47-3,1.28-5.9,1.83-8.86a8.69,8.69,0,0,0-.06-2.92c-.55-3.14-1.27-6.24-1.78-9.39-.46-2.91,1.51-6.7-3.25-8-.5-.14-.71-2.07-.73-3.18-.09-4,0-8,0-12l-1.46-.6c-.85,2-2.28,4-2.43,6.09-.41,5.47-.2,11-.41,16.47-.05,1.3-.8,2.57-1.22,3.86-1-.92-1.94-1.85-2.93-2.75C18.19,63.68,17.78,63.41,16.87,62.73ZM31.22,52.65H70.6V25.27H31.22ZM60.71,20.72V9.33H41.38V21H58.66A20.52,20.52,0,0,0,60.71,20.72ZM35.27,57.22V68.69h7.38V57.22ZM66.69,68.75V57.37H59.23V68.75ZM42.77,81.34h-7.4V92.75h7.4Zm23.9,11.43V81.39H59.25V92.77ZM15.26,47.47v11.2C19.15,58.6,19.13,58.6,19,51,19,48.54,19.31,45.92,15.26,47.47Zm71.5,11.46V47.36C81.58,46,82.77,50,83.16,52,83.62,54.32,80.4,59,86.76,58.93ZM23.21,39,27.58,30l-1.46-.84-6.07,6.28Zm52.13-9.42-1,.44,4.4,8.81L82,35.66Z" transform="translate(-11.06 -4.95)"/><path d="M51.33,31h2.49c12.28,0,12.75.46,11,12.8a4.68,4.68,0,0,1-3.27,3.05c-7.12.28-14.25.19-21.38.08-1,0-2.76-.85-2.78-1.37a120.79,120.79,0,0,1,.08-13.32c0-.48,2.18-1.13,3.38-1.18C44.36,30.9,47.85,31,51.33,31Zm6.1,11.62c4,0,4.41-1,2.83-7.38h-19v9L45,41c.72-.64,1.36-1.57,2.2-1.8.41-.12,1.17,1.06,1.79,1.63,1,.9,2,1.78,3.58,3.24l.79-6.77C58.82,36.1,56.25,40.39,57.43,42.62Z" transform="translate(-11.06 -4.95)"/></svg>